<svg id="Layer_1" data-name="Layer 1" xmlns="http://www.w3.org/2000/svg" viewBox="0 0 99.96 95.38"><title>Векторный смарт-объект1</title><path d="M176.62,66.21l-47-42.06a1.25,1.25,0,0,0-.27-0.21,2.78,2.78,0,0,0-3.76-.06l-47,42.06a2.78,2.78,0,0,0,3.7,4.15l8.47-7.59v49.05a7,7,0,0,0,7,7h14.84a6.56,6.56,0,0,0,6.56-6.56V87.06a1,1,0,0,1,1-1h15a1,1,0,0,1,1,1V112a6.56,6.56,0,0,0,6.56,6.56h14.84c3.91,0,7-3.84,7-8.76v-47l8.47,7.59a2.79,2.79,0,0,0,3.93-.23,2.83,2.83,0,0,0-.25-3.93h0ZM158.89,79.92v29.83c0,2-1,3.21-1.44,3.21H142.61a1,1,0,0,1-1-1V87.06A6.56,6.56,0,0,0,135,80.5h-15a6.56,6.56,0,0,0-6.56,6.56V112a1,1,0,0,1-1,1H97.65a1.44,1.44,0,0,1-1.44-1.44v-54l31.21-27.88L158.89,57.8V79.92Zm0,0" transform="translate(-77.58 -23.18)"/></svg>